<svg width="117" height="9" viewBox="0 0 117 9" fill="none" xmlns="http://www.w3.org/2000/svg">
<mask id="path-1-inside-1_22_2373" fill="white">
<path d="M0 0H117V9H0V0Z"/>
</mask>
<path d="M0 0H117V9H0V0Z" fill="#7E7E7E"/>
<path d="M0 0V1H117V0V-1H0V0ZM117 9V8H0V9V10H117V9Z" fill="white" mask="url(#path-1-inside-1_22_2373)"/>
<rect x="1" y="1" width="1" height="7" fill="#515151"/>
<rect x="4" y="1" width="1" height="7" fill="#515151"/>
<rect x="7" y="1" width="1" height="7" fill="#515151"/>
<rect x="10" y="1" width="1" height="7" fill="#515151"/>
<rect x="13" y="1" width="1" height="7" fill="#515151"/>
<rect x="16" y="1" width="1" height="7" fill="#515151"/>
<rect x="19" y="1" width="1" height="7" fill="#515151"/>
<rect x="22" y="1" width="1" height="7" fill="#515151"/>
<rect x="25" y="1" width="1" height="7" fill="#515151"/>
<rect x="28" y="1" width="1" height="7" fill="#515151"/>
<rect x="31" y="1" width="1" height="7" fill="#515151"/>
<rect x="34" y="1" width="1" height="7" fill="#515151"/>
<rect x="37" y="1" width="1" height="7" fill="#515151"/>
<rect x="40" y="1" width="1" height="7" fill="#515151"/>
<rect x="43" y="1" width="1" height="7" fill="#515151"/>
<rect x="46" y="1" width="1" height="7" fill="#515151"/>
<rect x="49" y="1" width="1" height="7" fill="#515151"/>
<rect x="52" y="1" width="1" height="7" fill="#515151"/>
<rect x="55" y="1" width="1" height="7" fill="#515151"/>
<rect x="58" y="1" width="1" height="7" fill="#515151"/>
<rect x="61" y="1" width="1" height="7" fill="#515151"/>
<rect x="64" y="1" width="1" height="7" fill="#515151"/>
<rect x="67" y="1" width="1" height="7" fill="#515151"/>
<rect x="70" y="1" width="1" height="7" fill="#515151"/>
<rect x="73" y="1" width="1" height="7" fill="#515151"/>
<rect x="76" y="1" width="1" height="7" fill="#515151"/>
<rect x="79" y="1" width="1" height="7" fill="#515151"/>
<rect x="82" y="1" width="1" height="7" fill="#515151"/>
<rect x="85" y="1" width="1" height="7" fill="#515151"/>
<rect x="88" y="1" width="1" height="7" fill="#515151"/>
<rect x="91" y="1" width="1" height="7" fill="#515151"/>
<rect x="94" y="1" width="1" height="7" fill="#515151"/>
<rect x="97" y="1" width="1" height="7" fill="#515151"/>
<rect x="100" y="1" width="1" height="7" fill="#515151"/>
<rect x="103" y="1" width="1" height="7" fill="#515151"/>
<rect x="106" y="1" width="1" height="7" fill="#515151"/>
<rect x="109" y="1" width="1" height="7" fill="#515151"/>
<rect x="112" y="1" width="1" height="7" fill="#515151"/>
<rect x="115" y="1" width="1" height="7" fill="#515151"/>
</svg>
